{"title":"Agnes Varda - L'une chante, l'autre pas (1977)","uid":6011351,"size":1414965505,"categoryP":"video","categoryS":"movies","magnet":"?xt=urn:btih:4bbbeb707271a40d9cac627fbe1c48a9fd633e0e&amp;dn=Agnes+Varda+-+L%5C%27une+chante%2C+l%5C%27autre+pas+%281977%29&amp;tr=udp%3A%2F%2Ftracker.openbittorrent.com%3A80&amp;tr=udp%3A%2F%2Fopen.demonii.com%3A1337&amp;tr=udp%3A%2F%2Ftracker.coppersurfer.tk%3A6969&amp;tr=udp%3A%2F%2Fexodus.desync.com%3A6969","seeders":8,"leechers":1,"uploader":"mfccorrea","files":3,"time":1291422624,"description":"The intertwined lives of 2 women in 1970's France, set against the progress of the women's movement in which Agnes Varda was involved. Pomme and Suzanne meet when Pomme helps Suzanne obtain an abortion after a third pregnancy which she cannot afford. They lose contact but meet again ten years later. Pomme has become an unconventional singer, Suzanne a serious community worker - despite the contrast they remain friends and share in the various dramas of each others' lives, in the process affirming their different female identities.\n\n \n &lt;a href=&quot;\nhttp://www.imdb.com/title/tt0076855/&quot; rel=&quot;nofollow&quot; target=&quot;_NEW&quot;&gt;\nhttp://www.imdb.com/title/tt0076855/&lt;/a&gt;\n\nGeneral\nComplete name                    : L'une chante l'autre pas - Agnes Varda (1977).avi\nFormat                           : AVI\nFormat/Info                      : Audio Video Interleave\nFile size                        : 1.32 GiB\nDuration                         : 1h 55mn\nOverall bit rate                 : 1 629 Kbps\n\nVideo\nFormat                           : MPEG-4 Visual\nFormat profile                   : Simple@L3\nFormat settings, BVOP            : No\nFormat settings, QPel            : No\nFormat settings, GMC             : No warppoints\nFormat settings, Matrix          : Default (H.263)\nCodec ID                         : XVID\nCodec ID/Hint                    : XviD\nDuration                         : 1h 55mn\nBit rate                         : 1 489 Kbps\nWidth                            : 720 pixels\nHeight                           : 448 pixels\nDisplay aspect ratio             : 1.607\nFrame rate                       : 25.000 fps\nResolution                       : 24 bits\nColorimetry                      : 4:2:0\nScan type                        : Progressive\nBits/(Pixel*Frame)               : 0.185\nStream size                      : 1.20 GiB (91%)\nWriting library                  : XviD 1.1.0 (UTC 2005-11-22)\n\nAudio\nFormat                           : MPEG Audio\nFormat version                   : Version 1\nFormat profile                   : Layer 3\nCodec ID                         : 55\nCodec ID/Hint                    : MP3\nDuration                         : 1h 55mn\nBit rate mode                    : Constant\nBit rate                         : 128 Kbps\nChannel(s)                       : 2 channels\nSampling rate                    : 44.1 KHz\nResolution                       : 16 bits\nVideo delay                      : 26ms\nStream size                      : 106 MiB (8%)\nAlignment                        : Split accross interleaves\nInterleave, duration             : 26 ms (0.65 video frame)\n\nFrench audio; English and Spanish subtitles\n\nAgnes Varda - L'une chante, l'autre pas (1977)\n","torrent":{"xt":"urn:btih:4bbbeb707271a40d9cac627fbe1c48a9fd633e0e","amp;dn":"Agnes+Varda+-+L%5C%27une+chante%2C+l%5C%27autre+pas+%281977%29","amp;tr":["udp%3A%2F%2Ftracker.openbittorrent.com%3A80","udp%3A%2F%2Fopen.demonii.com%3A1337","udp%3A%2F%2Ftracker.coppersurfer.tk%3A6969","udp%3A%2F%2Fexodus.desync.com%3A6969"],"infoHash":"4bbbeb707271a40d9cac627fbe1c48a9fd633e0e","infoHashBuffer":{"type":"Buffer","data":[75,187,235,112,114,113,164,13,156,172,98,127,190,28,72,169,253,99,62,14]},"announce":[],"urlList":[]}}